<svg width="200" height="200" viewBox="0 0 500 500" fill="none" xmlns="http://www.w3.org/2000/svg">
<rect width="500" height="500" fill="white"/>
<path d="M500 494.349H0V500H500V494.349Z" fill="white"/>
<path d="M396.13 394.561C396.13 398.908 379.747 411.581 360.287 411.581C340.827 411.581 325.664 398.908 325.664 394.561C325.664 390.214 341.437 391.613 360.916 391.613C380.395 391.613 396.13 390.206 396.13 394.561Z" fill="#504F60"/>
<path opacity="0.2" d="M396.13 394.561C396.13 398.908 379.747 411.581 360.287 411.581C340.827 411.581 325.664 398.908 325.664 394.561" fill="black"/>
<path d="M200.151 314.792C203.31 315.419 206.587 315.817 209.612 314.299C210.089 314.07 210.613 313.562 210.565 312.825C210.531 312.557 210.458 312.305 210.351 312.088C209.211 309.443 208.253 306.62 207.493 303.666C207.462 303.512 207.401 303.378 207.316 303.283C207.218 303.228 207.11 303.228 207.011 303.283C205.616 303.851 204.41 305.243 203.024 305.84C202.317 306.14 201.58 306.225 200.852 306.091C200.223 305.98 199.365 305.177 198.794 305.28C199.118 308.5 199.909 311.506 200.151 314.792Z" fill="#6C63FF"/>
<path d="M259.885 306.636C261.967 304.425 264.125 302.104 265.354 298.693C265.442 298.489 265.492 298.252 265.501 298.008C265.48 297.767 265.42 297.538 265.325 297.345C264.154 294.466 262.647 291.95 260.881 289.925C259.959 290.932 259.126 292.121 258.403 293.461C257.879 294.316 256.431 295.672 256.417 296.976C256.417 297.713 256.969 298.568 257.227 299.187C257.574 299.982 257.903 300.793 258.218 301.618C258.399 302.023 260.052 306.474 259.885 306.636Z" fill="#6C63FF"/>
<path d="M212.533 324.658C212.57 325.418 212.435 326.173 212.152 326.795C211.929 327.141 211.654 327.395 211.351 327.532C206.935 329.978 201.824 326.928 197.417 329.337C196.512 329.831 195.654 330.546 194.745 331.017C193.66 331.522 192.541 331.828 191.41 331.931C189.852 332.159 188.285 332.307 186.722 332.373C185.535 332.503 184.342 332.341 183.188 331.894C182.61 331.665 182.071 331.251 181.604 330.679C181.136 330.106 180.753 329.388 180.477 328.571C180.237 327.838 180.19 326.991 180.344 326.206C180.413 325.936 180.511 325.687 180.634 325.469C180.933 324.951 181.283 324.51 181.673 324.165L183.297 322.544C184.059 321.711 184.887 321.032 185.76 320.525C186.403 320.201 187.084 320.061 187.737 319.788C190.019 318.757 191.762 315.957 193.382 313.267L195.593 309.62C195.799 309.219 196.061 308.894 196.36 308.669C196.666 308.511 196.992 308.463 197.312 308.529C199.459 308.767 201.533 309.841 203.338 311.654C203.8 312.189 204.298 312.644 204.825 313.009C206.121 313.79 207.783 313.201 208.979 312.214C209.546 311.742 209.422 311.477 209.66 310.637C209.898 309.797 210.479 309.259 210.984 310.025C211.137 310.29 211.245 310.609 211.299 310.954C211.775 313.385 211.594 316.001 211.594 318.55C211.58 318.949 211.612 319.348 211.689 319.729C211.811 320.113 211.956 320.478 212.123 320.82C212.157 320.91 212.187 321.003 212.213 321.1C212.505 322.228 212.614 323.45 212.533 324.658V324.658Z" fill="#514E7F"/>
<path d="M212.533 324.658C212.57 325.418 212.435 326.173 212.152 326.795C211.929 327.141 211.654 327.395 211.351 327.532C206.935 329.978 201.824 326.928 197.417 329.337C196.512 329.831 195.654 330.546 194.745 331.017C193.66 331.522 192.541 331.828 191.41 331.931C189.852 332.159 188.285 332.307 186.722 332.373C185.535 332.503 184.342 332.341 183.188 331.894C182.61 331.665 182.071 331.251 181.604 330.679C181.136 330.106 180.753 329.388 180.477 328.571C180.237 327.838 180.19 326.991 180.344 326.206C180.413 325.936 180.511 325.687 180.634 325.469C180.891 326.302 181.077 327.407 181.239 327.805C181.458 328.394 181.756 328.905 182.112 329.303C182.469 329.7 182.876 329.976 183.307 330.111C183.951 330.172 184.598 330.045 185.212 329.735C189.214 328.203 193.468 328.18 197.312 325.859C198.632 325.056 199.89 323.988 201.276 323.502C202.662 323.015 204.134 323.148 205.563 322.964C207.821 322.684 210.008 321.63 212.233 321.077C212.52 322.215 212.623 323.445 212.533 324.658V324.658Z" fill="#464353"/>
<path d="M269.998 306.186C269.789 308.78 268.727 311.013 267.559 312.906C266.392 314.8 265.073 316.502 264.144 318.683C263 321.387 262.486 324.74 261 327.024C260.429 327.854 259.788 328.561 259.094 329.124C258.317 329.833 257.495 330.418 256.641 330.87C254.421 331.968 252.029 331.717 249.709 331.452C248.956 331.441 248.211 331.219 247.509 330.796C247.189 330.545 246.883 330.254 246.594 329.927C246.012 329.373 245.523 328.616 245.165 327.716C244.989 327.227 244.939 326.653 245.027 326.11C245.159 325.512 245.387 324.975 245.689 324.548C246.211 323.708 246.771 322.928 247.366 322.212C248.181 321.398 248.916 320.405 249.547 319.265C249.935 318.364 250.22 317.367 250.391 316.318C250.728 314.479 250.934 312.589 251.005 310.681C251.003 309.413 251.087 308.149 251.258 306.908C251.61 304.963 252.544 303.224 252.439 301.213C252.397 300.925 252.413 300.623 252.487 300.351C252.598 300.138 252.752 299.989 252.925 299.931C253.653 299.482 254.421 299.206 255.202 299.113C255.594 299.071 255.987 299.164 256.353 299.386C256.719 299.608 257.048 299.952 257.317 300.395C257.641 300.999 257.856 301.869 258.332 302.104C258.568 302.204 258.816 302.219 259.056 302.149C260.228 301.964 261.466 301.736 262.391 300.564C262.818 299.972 263.161 299.249 263.399 298.441C263.637 297.633 263.764 296.758 263.772 295.871C263.772 295.2 263.577 294.5 264.249 294.397C264.753 294.294 265.154 295.134 265.411 295.65C266.34 297.573 267.293 299.584 267.64 301.928C267.776 301.846 267.919 301.804 268.064 301.802C268.361 301.798 268.655 301.905 268.919 302.114C269.184 302.324 269.412 302.628 269.584 303.003C269.963 303.954 270.11 305.083 269.998 306.186Z" fill="#514E7F"/>
<path d="M269.998 306.186C269.789 308.78 268.727 311.013 267.559 312.906C266.392 314.8 265.073 316.502 264.144 318.683C263 321.387 262.486 324.74 261 327.024C260.429 327.854 259.788 328.561 259.094 329.124C258.317 329.833 257.495 330.418 256.641 330.87C254.421 331.968 252.029 331.717 249.709 331.452C248.956 331.441 248.211 331.219 247.509 330.796C247.189 330.545 246.883 330.254 246.594 329.927C246.012 329.373 245.523 328.616 245.165 327.716C245.611 327.384 246.099 327.203 246.594 327.186C247.623 327.274 248.376 328.777 249.362 329.242C250.767 329.897 252.168 328.365 253.592 327.842C254.521 327.503 255.497 327.591 256.417 327.105C257.183 326.647 257.891 325.983 258.508 325.145C259.354 324.209 260.107 323.087 260.742 321.814C261.27 320.541 261.709 319.185 262.052 317.769C262.805 315.055 263.69 312.434 264.701 309.929C264.851 309.533 265.031 309.167 265.239 308.839C265.463 308.522 265.716 308.301 265.968 308.021C266.921 306.908 267.316 305.074 267.65 303.276C267.74 302.729 267.866 302.199 268.026 301.692C268.323 301.688 268.617 301.795 268.881 302.004C269.146 302.213 269.374 302.518 269.546 302.893C269.956 303.866 270.117 305.04 269.998 306.186V306.186Z" fill="#464353"/>
<path d="M170.106 76.46C171.292 77.8343 172.268 79.5952 172.964 81.6178C173.631 83.6367 177.476 99.3015 177.252 101.578C178.505 99.6257 183.445 99.3089 184.712 97.3563C185.241 96.5384 188.094 92.4564 188.523 91.5059C188.952 90.5554 192.134 88.5586 192.482 87.5565C193.782 83.9535 183.259 70.3002 184.607 66.7413C184.682 66.5778 184.72 66.3814 184.717 66.1814C184.686 66.0134 184.625 65.8625 184.541 65.7466C183.678 64.3835 182.535 63.5362 181.496 62.5267C180.458 61.5173 179.458 60.1099 179.176 58.2531C178.186 58.9583 177.277 59.909 176.485 61.0678C174.554 63.627 172.656 66.2378 170.792 68.9002C170.063 69.9465 168.653 71.3391 168.315 72.8349C167.915 74.4411 169.411 75.5832 170.106 76.46Z" fill="#A1616A"/>
<path d="M187.142 70.6612C185.527 72.3393 184.018 74.2488 182.635 76.3642C181.33 78.361 180.091 80.6746 179.777 83.4672C179.643 84.565 179.662 85.6777 179.553 86.7903C179.076 91.6164 176.38 95.1532 175.189 99.6699C174.844 101.064 174.59 102.508 174.432 103.98C174.097 106.771 173.914 109.601 173.884 112.439C173.855 115.187 175.599 117.081 176.237 119.645C176.876 122.209 177.047 124.847 177.371 127.478C177.981 132.444 179.1 137.233 180.229 141.993C182.578 152.028 190.19 179.77 192.539 189.813C199.737 187.02 218.897 180.602 225.271 174.715C227.396 172.755 210.527 150.643 212.799 149.118C212.929 149.087 213.053 149.009 213.16 148.891C213.267 148.774 213.355 148.619 213.417 148.44C213.479 148.26 213.513 148.061 213.517 147.858C213.52 147.655 213.493 147.453 213.438 147.269C211.165 131.898 204.058 119.269 200.833 104.305C199.713 99.1099 197.703 94.6742 196.178 89.7375C194.797 85.265 194.059 80.321 192.406 76.0695C192.094 75.1936 191.686 74.4082 191.2 73.7485C190.788 73.2595 190.342 72.842 189.871 72.5033C188.928 71.7959 188.051 71.3759 187.142 70.6612Z" fill="#514E7F"/>
<path d="M170.487 74.7137C176.71 74.7137 181.754 66.9119 181.754 57.2879C181.754 47.6639 176.71 39.8621 170.487 39.8621C164.265 39.8621 159.221 47.6639 159.221 57.2879C159.221 66.9119 164.265 74.7137 170.487 74.7137Z" fill="#A1616A"/>
<path d="M181.949 65.474C182.51 64.673 183.216 64.154 183.972 63.9857C184.728 63.8173 185.499 64.0074 186.184 64.5309C186.946 65.1424 187.613 66.3803 187.442 67.6771L193.03 67.8097C193.919 67.7721 194.808 67.8982 195.678 68.1855C196.554 68.4804 197.336 69.2387 197.889 70.3297C197.955 70.4696 198.032 70.6391 198.146 70.6612C198.239 70.6635 198.33 70.6167 198.403 70.5286C199.263 69.8618 200.231 69.6053 201.185 69.7918C204.206 70.0939 206.997 72.4296 209.365 75.3474C209.792 75.8014 210.123 76.4394 210.317 77.1821C210.513 78.1621 210.279 79.3926 210.794 80.0925C210.794 88.1976 212.595 95.7721 213.795 103.671C214.009 105.078 214.881 106.323 215.486 107.429C216.234 108.654 216.844 110.063 217.292 111.599C218.311 115.696 216.906 120.515 217.897 124.626C218.316 126.365 219.126 127.794 219.802 129.305C220.694 131.049 221.258 133.14 221.431 135.347C221.474 136.334 221.393 137.329 221.431 138.294C221.495 139.622 221.655 140.934 221.908 142.207C222.314 144.584 222.74 146.959 223.185 149.332C223.909 153.163 224.852 157.297 227.072 159.338C221.713 160.745 216.063 162.123 210.956 159.242C210.243 158.866 209.567 158.343 208.945 157.687C207.102 155.654 206.211 152.176 205.415 148.89C204.529 145.205 203.629 141.455 203.448 137.535C203.45 136.288 203.336 135.048 203.11 133.851C202.591 131.714 201.204 130.425 199.947 129.239C198.526 128.035 197.24 126.488 196.136 124.656C195.588 123.733 195.168 122.646 194.903 121.462C194.637 120.278 194.531 119.023 194.592 117.774C194.687 116.558 194.997 115.386 195.026 114.163C195.054 112.94 194.702 111.54 193.944 111.216C190.043 109.389 188.18 102.241 187.313 96.0816C186.939 92.8979 186.771 89.6644 186.813 86.4292L186.76 80.1441C186.222 79.3865 185.789 78.4673 185.488 77.4425C185.186 76.4177 185.023 75.3088 185.007 74.1832C185.059 73.5265 185.051 72.8618 184.984 72.2085C184.795 71.41 184.488 70.6909 184.088 70.1086C183.227 68.7412 182.505 67.1783 181.949 65.474V65.474Z" fill="#464353"/>
<path d="M169.949 85.3977C169.82 87.3429 170.106 89.3397 169.825 91.248C169.716 91.9849 169.525 92.7217 169.387 93.4069C168.964 96.1537 169.147 99.0399 169.906 101.608C170.664 104.15 171.571 106.58 172.617 108.865C172.97 109.646 173.261 110.489 173.484 111.378C173.664 112.311 173.776 113.273 173.817 114.244C174.093 118.146 174.535 122.016 175.141 125.827C175.675 129.128 181.735 157.348 183.145 159.964C183.401 160.543 183.789 160.951 184.231 161.106C184.55 161.125 184.867 161.024 185.155 160.811L188.013 159.117C188.256 159.002 188.482 158.811 188.675 158.557C188.943 158.073 189.089 157.455 189.085 156.818C189.29 153.222 183.216 124.803 182.444 121.406C180.11 111.15 177.004 101.261 175.484 90.6438C175.061 87.6965 174.837 83.1577 173.441 80.8073C172.864 79.8347 173.06 80.2473 172.369 80.7557C172.02 80.99 171.682 81.2633 171.359 81.5736C170.955 82.0083 170.618 82.5773 170.374 83.2389C170.13 83.9005 169.985 84.6381 169.949 85.3977Z" fill="#464353"/>
<path d="M178.624 104.857C179.391 111.127 180.182 117.383 180.968 123.653L192.153 119.122C192.244 117.309 191.62 115.629 191.2 113.964C190.181 110.007 190.157 105.601 189.333 101.534C188.709 98.4394 187.623 95.5953 187.037 92.4785C186.698 90.6659 186.527 88.7944 186.194 86.9597C185.836 85.158 185.397 83.3975 184.879 81.6914C184.251 79.2171 183.432 76.8693 182.44 74.699C181.011 75.5242 179.486 76.4821 178.671 78.4789C178.254 79.604 178.015 80.8669 177.976 82.163C177.781 86.0461 178.691 89.9512 178.39 93.8122C178.081 97.4891 178.16 101.219 178.624 104.857V104.857Z" fill="#B370D0"/>
<path d="M192.339 188.265C192.968 191.949 192.058 195.825 191.315 199.472C190.196 204.966 189.433 210.618 189.038 216.346C188.989 217.803 188.8 219.241 188.475 220.612C188.123 221.842 187.523 222.881 187.113 224.053C185.989 227.133 186.017 230.891 186.26 234.413C186.422 236.734 186.665 239.047 186.965 241.331C187.332 244.124 187.785 247.042 187.256 249.768C188.142 249.466 188.742 251.242 188.685 252.634C188.628 254.027 188.337 255.581 188.771 256.782C189.866 257.401 189.876 259.73 189.843 261.535C189.861 264.665 190.117 267.781 190.605 270.819C192.263 283.148 194.022 295.444 195.883 307.704C199.909 309.635 204.61 311.646 208.45 308.972C209.165 308.478 209.879 307.689 210.041 306.496C210.083 305.853 210.031 305.203 209.889 304.595L208.069 294.353C207.626 291.877 207.183 289.321 207.416 286.778C207.593 284.885 208.126 282.844 207.526 281.171C207.321 280.597 206.997 280.147 206.759 279.602C205.806 277.443 206.306 274.555 206.383 271.939C206.412 271.352 206.387 270.761 206.306 270.185C206.176 269.513 205.994 268.867 205.763 268.262C204.259 263.746 203.537 258.705 203.667 253.629C203.724 252.981 203.667 252.322 203.5 251.72C203.385 251.472 203.281 251.211 203.191 250.939C203.12 250.466 203.155 249.97 203.291 249.532C202.745 248.891 202.252 248.149 201.824 247.322C202.088 247.068 202.311 246.724 202.477 246.317C202.643 245.91 202.747 245.449 202.781 244.971C202.815 244.493 202.778 244.009 202.673 243.556C202.568 243.103 202.398 242.692 202.176 242.355C202.37 242.295 202.55 242.152 202.695 241.943C202.84 241.735 202.945 241.467 202.998 241.172C203.05 240.877 203.049 240.564 202.994 240.27C202.939 239.975 202.832 239.71 202.686 239.504C202.452 239.253 202.143 239.143 201.976 238.767C201.719 238.222 201.928 237.463 202.138 236.881L203.248 233.779C204.077 231.473 204.263 228.621 205.154 226.411C206.43 223.191 207.264 219.602 208.088 216.051L211.294 202.368L213.452 205.264C214.171 206.113 214.773 207.175 215.224 208.388C215.531 209.587 215.725 210.847 215.801 212.131C216.591 219.558 219.612 225.998 220.731 233.315C220.979 234.943 221.146 236.652 221.751 238.045C221.967 238.473 222.161 238.926 222.332 239.401C222.49 240.125 222.572 240.884 222.575 241.648C222.675 243.145 222.982 244.59 223.475 245.887C223.968 247.184 224.636 248.302 225.433 249.164C226.495 250.291 227.815 251.065 228.391 252.848C228.507 253.4 228.667 253.927 228.868 254.417C229.382 255.375 230.492 255.486 230.711 256.687C230.835 257.357 230.607 258.16 230.85 258.75C230.988 259.023 231.17 259.234 231.378 259.361L234.48 261.756C237.948 264.438 239.72 270.598 242.278 275.085C243.161 276.547 243.944 278.147 244.612 279.86C245.717 282.918 246.227 286.756 248.095 288.702C248.597 289.104 249.053 289.629 249.447 290.256C250.033 291.45 249.819 293.123 249.871 294.626C249.924 296.129 250.667 297.919 251.591 297.462C251.267 299.283 251.267 301.205 251.591 303.025C255.649 302.703 259.518 300.279 262.577 296.144C263.482 294.92 264.353 293.358 264.363 291.501C264.377 291.181 264.331 290.861 264.23 290.58C264.046 290.218 263.805 289.936 263.529 289.763C260.628 287.331 259.756 281.694 258.289 277.119C257.008 273.081 255.112 269.603 253.525 265.853C250.076 257.785 247.723 248.022 242.507 242.694C241.359 241.523 240.025 240.484 239.448 238.546C239.129 237.463 239.091 236.225 238.838 235.105C238.586 233.985 237.981 232.895 237.209 232.895C237.638 231.274 237.552 229.299 237.581 227.545C237.61 226.767 237.552 225.987 237.409 225.239C237.211 224.435 236.954 223.668 236.642 222.955C235.281 219.391 234.601 215.303 234.68 211.166C234.718 209.036 234.961 206.841 234.546 204.807C234.337 203.783 233.97 202.847 233.717 201.86C233.337 200.071 233.136 198.202 233.122 196.319L232.836 189.238C232.793 186.88 232.595 184.534 232.245 182.238C231.293 176.741 230.34 153.716 227.077 151.122C223.813 148.529 218.206 166.249 214.533 166.595C212.909 166.7 211.303 167.179 209.77 168.018C207.326 169.432 205.277 172.07 203.281 174.649L196.526 183.424C195.097 185.244 193.916 186.983 192.339 188.265Z" fill="#464353"/>
<path d="M159.916 37.939C161.403 34.8001 163.956 33.1349 166.471 32.9949C168.987 32.8549 171.464 34.078 173.717 35.8095C174.382 36.3945 175.093 36.8452 175.832 37.1506C177.023 37.5263 178.348 37.0253 179.424 37.8874C180.853 39.0589 181.13 42.0431 181.006 44.5188C180.882 46.9945 180.582 49.7428 181.434 51.887C181.737 52.4985 182.012 53.141 182.259 53.8101C182.625 55.0848 182.411 56.5584 182.192 57.9068C181.635 57.17 181.32 56.0574 180.825 55.2027C180.329 54.348 179.467 53.7733 178.852 54.4143C178.238 55.0553 178.247 56.2195 178.214 57.2658C178.181 58.3121 178.009 59.5647 177.371 59.9036C177.104 59.9975 176.826 59.9655 176.571 59.8118C176.316 59.6581 176.097 59.3898 175.942 59.0415C174.851 56.9784 175.289 53.6848 174.208 51.607C173.593 50.4281 172.569 49.8534 172.002 48.6155C171.554 47.6429 171.44 46.405 171.049 45.3587C170.659 44.3125 169.749 43.5462 169.144 44.2683C168.937 44.5734 168.765 44.9294 168.634 45.3219C168.257 46.1577 167.708 46.7724 167.077 47.0665C166.446 47.3606 165.77 47.3171 165.157 46.9429C164.688 46.4981 164.181 46.1583 163.651 45.9335C163.304 45.9066 162.959 46.0304 162.655 46.2908C162.351 46.5512 162.101 46.9379 161.931 47.4071C161.59 48.3446 161.424 49.4117 161.455 50.487C161.455 51.9607 161.627 53.5301 161.083 54.709C160.877 55.1528 160.618 55.5327 160.321 55.829C159.526 56.6174 158.416 57.1479 157.682 56.249C157.433 55.8908 157.248 55.4397 157.145 54.939C157.042 54.4384 157.023 53.905 157.091 53.3901C157.234 52.3646 157.422 51.3552 157.654 50.3691C158.073 48.085 157.525 45.5135 157.982 43.362C158.461 41.4243 159.112 39.5992 159.916 37.939V37.939Z" fill="#464353"/>
<path d="M165.952 89.9218C165.881 90.4588 165.917 91.0168 166.057 91.5207C166.198 91.8638 166.391 92.1494 166.619 92.3533C168.221 93.8969 170.043 94.8101 171.926 95.0132C172.182 95.02 172.434 95.1211 172.66 95.3079C173.107 95.7648 173.136 96.7816 172.969 97.5921C172.747 98.3566 172.632 99.1853 172.631 100.024C172.769 101.564 173.951 102.234 174.946 102.462C176.342 102.735 177.871 102.595 178.976 101.247C179.725 100.191 180.296 98.8678 180.639 97.3931C183.373 87.6745 184.331 76.9316 187.099 67.2424C187.308 66.6097 187.448 65.9274 187.513 65.2235C187.542 64.8711 187.51 64.5131 187.42 64.1866C187.329 63.86 187.184 63.5769 186.999 63.3667C186.484 62.873 185.684 63.153 185.336 62.3794C185.165 61.9888 185.184 61.4583 185.031 61.0457C184.712 60.1689 183.874 60.3089 183.302 59.8005C182.854 59.4321 182.544 58.6731 182.044 58.5258C181.799 58.5043 181.553 58.5717 181.328 58.7227C181.102 58.8736 180.902 59.1039 180.744 59.3952C179.119 61.7383 178.267 65.0614 177.361 68.2002C175.979 73.0116 174.361 77.6524 172.521 82.082C172.736 81.5662 171.492 77.661 171.007 77.4916C170.154 77.2263 169.063 79.5399 168.601 80.402C167.151 83.1213 166.232 86.4236 165.952 89.9218V89.9218Z" fill="#B370D0"/>
<path opacity="0.1" d="M183.259 60.4857C182.917 60.4945 182.58 60.6223 182.274 60.8595C181.968 61.0968 181.701 61.4374 181.492 61.8562C180.982 62.8804 180.882 64.2361 180.753 65.5403C180.32 69.6722 179.366 73.6324 177.947 77.1968" fill="black"/>
<path opacity="0.1" d="M185.689 63.4256C185.216 63.4419 184.755 63.6482 184.35 64.0242C183.945 64.4001 183.61 64.9328 183.378 65.5698C183.063 66.7287 182.867 67.9569 182.797 69.2097C182.388 71.9871 181.601 74.5974 180.486 76.8653" fill="black"/>
<path d="M298.905 207.474V198.323C298.904 191.586 297.173 185.126 294.093 180.363C291.012 175.6 286.835 172.925 282.48 172.925H48.8195C44.464 172.925 40.2868 175.6 37.2066 180.363C34.1263 185.126 32.3952 191.586 32.3939 198.323V215.196L298.905 207.474Z" fill="#33323D"/>
<path d="M113.822 162.197C113.822 162.197 113.155 226.197 120.491 247.255C127.827 268.314 130.971 359.923 130.971 359.923C130.971 359.923 207.878 372.228 261.471 345.186C315.064 318.145 429.1 307.085 429.1 307.085L409.883 106.751C409.883 106.751 314.945 97.3342 260.938 137.174C206.93 177.014 113.822 162.197 113.822 162.197Z" fill="#8DD070"/>
<path opacity="0.1" d="M113.822 162.197C113.822 162.197 113.155 226.197 120.491 247.255C127.827 268.314 130.971 359.923 130.971 359.923C130.971 359.923 207.878 372.228 261.471 345.186C315.064 318.145 429.1 307.085 429.1 307.085L409.883 106.751C409.883 106.751 314.945 97.3342 260.938 137.174C206.93 177.014 113.822 162.197 113.822 162.197Z" fill="black"/>
<path d="M130.843 185.576C130.843 185.576 128.437 238.384 134.473 255.257C140.509 272.13 140.79 347.456 140.79 347.456C140.79 347.456 210.003 352.422 259.237 326.501C308.471 300.579 411.931 283.765 411.931 283.765L400.174 119.933C400.174 119.933 314.569 118.569 264.606 155.057C214.643 191.544 130.843 185.576 130.843 185.576Z" fill="#8DD070"/>
<path opacity="0.1" d="M263.846 296.504C273.694 294.607 279.544 266.586 276.913 233.917C274.283 201.249 264.167 176.303 254.319 178.201C244.471 180.098 238.62 208.119 241.251 240.788C243.882 273.456 253.998 298.401 263.846 296.504Z" fill="black"/>
<path opacity="0.2" d="M357.834 9.15869C357.834 9.15869 265.601 45.263 222.108 108.814C178.614 172.365 87.0539 202.457 87.0539 202.457C87.0539 202.457 99.1159 263.679 110.273 280.243C121.43 296.807 142.59 382.514 142.59 382.514C142.59 382.514 218.225 357.712 263.863 306.518C309.5 255.324 415.862 190.667 415.862 190.667L357.834 9.15869Z" fill="black"/>
<path d="M85.6676 193.29C85.6676 193.29 97.7248 254.52 108.872 271.084C120.019 287.648 141.19 373.348 141.19 373.348C141.19 373.348 216.834 348.554 262.476 297.359C308.118 246.165 414.471 181.531 414.471 181.531L356.443 0C356.443 0 264.215 36.1043 220.722 99.6552C177.228 163.206 85.6676 193.29 85.6676 193.29Z" fill="#8DD070"/>
<path opacity="0.1" d="M85.6676 193.29C85.6676 193.29 97.7248 254.52 108.872 271.084C120.019 287.648 141.19 373.348 141.19 373.348C141.19 373.348 216.834 348.554 262.476 297.359C308.118 246.165 414.471 181.531 414.471 181.531L356.443 0C356.443 0 264.215 36.1043 220.722 99.6552C177.228 163.206 85.6676 193.29 85.6676 193.29Z" fill="black"/>
<path d="M106.49 207.467C106.49 207.467 114.679 258.875 123.773 272.064C132.867 285.253 148.069 356.799 148.069 356.799C148.069 356.799 214.924 328.667 256.641 280.626C298.357 232.585 393.5 167.546 393.5 167.546L349.811 17.1458C349.811 17.1458 268.069 56.47 227.753 114.915C187.437 173.359 106.49 207.467 106.49 207.467Z" fill="#8DD070"/>
<path opacity="0.1" d="M255.098 249.914C264.095 243.434 264.104 213.988 255.119 184.144C246.134 154.3 231.557 135.36 222.56 141.84C213.564 148.319 213.555 177.766 222.54 207.61C231.525 237.453 246.102 256.394 255.098 249.914Z" fill="black"/>
<path opacity="0.1" d="M305.213 216.456V470.66C305.213 473.547 304.845 476.405 304.13 479.073C303.416 481.74 302.369 484.163 301.049 486.204C299.729 488.245 298.162 489.864 296.437 490.968C294.712 492.072 292.864 492.64 290.997 492.639H46.6139C42.8459 492.637 39.2326 490.321 36.5687 486.199C33.9047 482.077 32.4082 476.488 32.4082 470.66V190.829C39.411 194.853 39.411 194.853 46.6139 194.514H290.997C294.763 194.514 298.374 196.824 301.039 200.938C303.704 205.052 305.205 210.633 305.213 216.456V216.456Z" fill="black"/>
<path d="M305.213 219.691V473.894C305.211 479.724 303.713 485.315 301.047 489.437C298.382 493.558 294.767 495.874 290.997 495.874H46.6139C42.8459 495.872 39.2326 493.555 36.5687 489.434C33.9047 485.312 32.4082 479.722 32.4082 473.894V194.057C39.411 198.072 39.411 198.072 46.6139 197.741H290.997C294.763 197.741 298.375 200.052 301.041 204.168C303.706 208.283 305.206 213.866 305.213 219.691V219.691Z" fill="#504F60"/>
<path opacity="0.1" d="M304.517 313.672V394.966H253.544C246.636 394.822 240.042 390.476 235.189 382.869C230.337 375.262 227.616 365.006 227.616 354.319C227.616 343.633 230.337 333.376 235.189 325.769C240.042 318.162 246.636 313.816 253.544 313.672H304.517Z" fill="black"/>
<path d="M305.213 311.506V392.814H254.24C247.331 392.671 240.737 388.325 235.885 380.718C231.032 373.111 228.312 362.854 228.312 352.168C228.312 341.481 231.032 331.225 235.885 323.618C240.737 316.011 247.331 311.665 254.24 311.521L305.213 311.506Z" fill="#33323D"/>
<path opacity="0.1" d="M256.684 370.172C262.343 370.172 266.931 363.076 266.931 354.323C266.931 345.57 262.343 338.474 256.684 338.474C251.024 338.474 246.437 345.57 246.437 354.323C246.437 363.076 251.024 370.172 256.684 370.172Z" fill="black"/>
<path d="M257.379 368.02C263.038 368.02 267.626 360.925 267.626 352.171C267.626 343.418 263.038 336.322 257.379 336.322C251.72 336.322 247.132 343.418 247.132 352.171C247.132 360.925 251.72 368.02 257.379 368.02Z" fill="#6C63FF"/>
<path d="M393.691 310.806C394.096 317.592 390.775 324.179 391.742 330.826C391.952 332.248 392.347 333.589 392.49 335.026C392.89 338.975 391.371 342.711 389.918 346.012L377.437 374.335C376.937 375.58 376.338 376.724 375.655 377.739C373.273 381.025 369.691 380.686 366.556 381.666C364.353 382.358 362.272 383.781 360.458 385.837C360.383 385.937 360.334 386.078 360.324 386.232C360.313 386.385 360.341 386.539 360.401 386.662C360.919 387.753 361.606 388.626 362.398 389.201C363.19 389.777 364.063 390.036 364.936 389.956C365.265 390.626 364.936 391.606 364.46 392.085C363.788 392.822 362.869 392.999 362.736 394.752C362.688 395.364 362.768 395.984 362.964 396.521C363.467 397.712 364.249 398.555 365.146 398.871C369.467 400.912 374.135 397.324 377.37 392.439C380.605 387.554 382.925 381.386 386.097 376.413C387.855 373.664 389.851 371.307 391.661 368.639C395.272 363.319 398.078 356.85 400.789 350.374C401.604 348.421 402.423 346.417 402.766 344.155C403.109 341.893 402.947 339.609 403.333 337.42C403.838 334.547 405.195 332.262 406.324 329.853C408.54 325.137 410.016 319.368 409.726 313.562C409.435 307.756 407.106 302.016 403.561 300.041C402.463 299.359 401.251 299.245 400.108 299.717C398.655 300.41 397.583 302.266 396.592 304.042L394.21 308.279C393.616 309.208 393.147 310.31 392.829 311.521C392.676 312.129 392.64 312.792 392.724 313.431C392.809 314.07 393.01 314.657 393.305 315.124" fill="#FBBEBE"/>
<path opacity="0.05" d="M393.691 310.806C394.096 317.592 390.775 324.179 391.742 330.826C391.952 332.248 392.347 333.589 392.49 335.026C392.89 338.975 391.371 342.711 389.918 346.012L377.437 374.335C376.937 375.58 376.338 376.724 375.655 377.739C373.273 381.025 369.691 380.686 366.556 381.666C364.353 382.358 362.272 383.781 360.458 385.837C360.383 385.937 360.334 386.078 360.324 386.232C360.313 386.385 360.341 386.539 360.401 386.662C360.919 387.753 361.606 388.626 362.398 389.201C363.19 389.777 364.063 390.036 364.936 389.956C365.265 390.626 364.936 391.606 364.46 392.085C363.788 392.822 362.869 392.999 362.736 394.752C362.688 395.364 362.768 395.984 362.964 396.521C363.467 397.712 364.249 398.555 365.146 398.871C369.467 400.912 374.135 397.324 377.37 392.439C380.605 387.554 382.925 381.386 386.097 376.413C387.855 373.664 389.851 371.307 391.661 368.639C395.272 363.319 398.078 356.85 400.789 350.374C401.604 348.421 402.423 346.417 402.766 344.155C403.109 341.893 402.947 339.609 403.333 337.42C403.838 334.547 405.195 332.262 406.324 329.853C408.54 325.137 410.016 319.368 409.726 313.562C409.435 307.756 407.106 302.016 403.561 300.041C402.463 299.359 401.251 299.245 400.108 299.717C398.655 300.41 397.583 302.266 396.592 304.042L394.21 308.279C393.616 309.208 393.147 310.31 392.829 311.521C392.676 312.129 392.64 312.792 392.724 313.431C392.809 314.07 393.01 314.657 393.305 315.124" fill="black"/>
<path d="M403.137 485.507C400.413 488.078 397.016 488.233 393.848 487.636C393.338 487.54 392.733 487.481 392.419 488.093C391.943 488.977 392.505 490.303 393.086 490.989C394.954 493.159 397.15 494.556 399.465 495.049C401.532 495.502 403.618 495.716 405.705 495.69C411.422 495.844 417.138 495.992 422.764 494.724C423.098 494.685 423.422 494.54 423.717 494.297C424.08 493.903 424.332 493.31 424.422 492.639C424.808 490.37 424.065 487.938 422.941 486.361C421.816 484.785 420.373 483.908 418.963 483.06L414.008 480.076C412.846 479.376 410.983 477.52 409.721 477.667C407.349 477.932 405.105 483.724 403.137 485.507Z" fill="#3F3D56"/>
<path opacity="0.05" d="M403.137 485.507C400.413 488.078 397.016 488.233 393.848 487.636C393.338 487.54 392.733 487.481 392.419 488.093C391.943 488.977 392.505 490.303 393.086 490.989C394.954 493.159 397.15 494.556 399.465 495.049C401.532 495.502 403.618 495.716 405.705 495.69C411.422 495.844 417.138 495.992 422.764 494.724C423.098 494.685 423.422 494.54 423.717 494.297C424.08 493.903 424.332 493.31 424.422 492.639C424.808 490.37 424.065 487.938 422.941 486.361C421.816 484.785 420.373 483.908 418.963 483.06L414.008 480.076C412.846 479.376 410.983 477.52 409.721 477.667C407.349 477.932 405.105 483.724 403.137 485.507Z" fill="black"/>
<path d="M406.61 383.781C404.548 388.025 402.413 392.925 402.923 398.179C403.199 401.008 404.224 403.506 404.976 406.121C405.996 409.673 406.529 413.49 407.053 417.292C407.825 422.847 408.602 428.418 409.073 434.062C409.611 440.435 407.082 458.878 406.848 465.296C406.791 466.843 406.672 468.516 405.977 469.628C405.705 470.07 405.343 470.424 405.219 470.999C405.147 471.552 405.206 472.128 405.386 472.62C406.548 476.672 408.925 479.693 411.579 481.417C414.232 483.141 420.63 486.118 423.522 486.273C423.903 486.338 424.289 486.26 424.646 486.045C425.031 485.682 425.334 485.144 425.513 484.505C427.585 478.374 425.594 456.579 425.623 449.66C425.651 443.891 426.533 438.158 426.371 432.397C426.237 427.769 425.418 423.245 425.146 418.633C424.67 411.073 425.565 403.476 426.466 396.005C427.152 390.272 427.843 384.54 428.724 378.881C429.262 375.425 429.886 371.94 431.106 368.941C432.059 366.562 433.397 364.572 434.507 362.31C437.588 356.063 438.957 348.192 438.318 340.397C438.251 339.66 431.172 343.175 430.548 343.595C428.002 345.262 425.659 347.593 423.622 350.484C421.983 352.901 420.692 356.128 419.258 358.832C417.229 362.659 415.225 366.512 413.246 370.393C410.988 374.829 408.776 379.291 406.61 383.781Z" fill="#464353"/>
<path opacity="0.05" d="M406.61 383.523C404.548 387.767 402.413 392.674 402.923 397.921C403.199 400.757 404.224 403.255 404.976 405.871C405.996 409.415 406.529 413.239 407.053 417.034C407.825 422.597 408.602 428.167 409.073 433.804C409.611 440.185 407.082 458.62 406.848 465.038C406.791 466.585 406.672 468.265 405.977 469.378C405.705 469.812 405.343 470.166 405.219 470.741C405.146 471.294 405.205 471.87 405.386 472.362C406.548 476.422 408.925 479.435 411.579 481.204C414.232 482.972 420.63 484.512 423.522 484.659C423.903 484.724 424.289 484.646 424.646 484.431C425.031 484.073 425.335 483.537 425.513 482.898C427.585 476.768 425.594 456.373 425.623 449.447C425.651 443.67 426.533 437.945 426.371 432.176C426.237 427.548 425.418 423.024 425.146 418.419C424.67 410.852 425.565 403.255 426.466 395.784C427.152 390.059 427.843 384.326 428.724 378.66C429.262 375.204 429.886 371.719 431.106 368.72C432.059 366.34 433.397 364.351 434.507 362.089C437.589 355.842 438.958 347.971 438.318 340.176C438.252 339.439 431.172 342.954 430.548 343.374C428.003 345.047 425.66 347.379 423.622 350.27C421.983 352.68 420.692 355.907 419.258 358.611C417.229 362.438 415.225 366.294 413.246 370.179C410.988 374.581 408.776 379.029 406.61 383.523Z" fill="black"/>
<path d="M383.658 290.308C390.044 290.308 395.22 282.302 395.22 272.425C395.22 262.549 390.044 254.542 383.658 254.542C377.273 254.542 372.096 262.549 372.096 272.425C372.096 282.302 377.273 290.308 383.658 290.308Z" fill="#FBBEBE"/>
<path d="M394.072 271.674C395.14 274.309 396.541 276.584 398.19 278.364C399.839 280.144 401.703 281.392 403.671 282.033L402.799 286.933C401.294 295.348 399.603 304.249 395.401 310.084C395.877 307.233 395.268 304.19 394.229 301.714C393.191 299.238 391.733 297.293 390.304 295.37L383.649 286.454C383.457 286.212 383.295 285.918 383.172 285.585C383.008 284.956 383.008 284.253 383.172 283.625C384.02 279.543 386.44 276.993 388.413 274.238C389.402 272.813 390.286 271.221 391.047 269.493C392.376 266.56 393.2 269.507 394.072 271.674Z" fill="#FBBEBE"/>
<path d="M368.428 254.447L368.166 251.087C369.991 251.824 371.725 249.422 372.892 246.938C374.059 244.455 375.141 241.53 376.917 240.491C379.075 239.239 381.362 241.228 383.425 242.908C385.734 244.89 388.269 246.166 390.89 246.666C391.308 246.687 391.722 246.791 392.124 246.975C393.467 247.712 394.105 250.321 394.301 252.686C394.496 255.051 394.444 257.563 395.106 259.671C395.582 261.27 396.468 262.456 397.011 264.033C398.44 268.262 397.059 274.046 398.55 278.194L394.844 272.941C394.505 272.462 394.029 271.961 393.653 272.366C393.357 272.69 393.334 273.39 393.214 273.95C392.857 275.586 391.533 276.072 390.575 275.424C389.618 274.776 388.918 273.368 388.193 272.086C386.555 269.095 384.601 266.464 382.315 265.19C381.313 264.61 380.242 264.367 379.174 264.476C378.107 264.585 377.066 265.044 376.122 265.823C374.393 267.334 373.125 270.856 371.006 270.981C368.1 271.15 366.89 262.78 365.546 259.472C366.038 258.9 366.384 258.078 366.523 257.151C366.662 256.225 366.586 255.251 366.308 254.402C366.504 254.277 368.385 253.931 368.428 254.447Z" fill="#464353"/>
<path d="M225.424 149.899C224.495 151.177 223.636 152.572 222.856 154.069C222.071 155.588 221.653 157.482 221.674 159.426C221.679 159.99 221.795 160.538 222.008 160.996C222.117 161.215 222.267 161.376 222.438 161.456C222.609 161.537 222.791 161.533 222.961 161.445C223.152 161.294 223.316 161.071 223.437 160.797C223.941 159.861 224.475 158.966 225.038 158.115C225.242 157.798 225.514 157.466 225.79 157.584C225.914 157.652 226.025 157.766 226.114 157.916C226.435 158.344 226.668 158.907 226.786 159.537C226.953 160.664 226.529 161.791 226.048 162.676C225.566 163.56 225 164.407 224.804 165.52C224.73 165.814 224.73 166.14 224.804 166.433C224.896 166.646 225.025 166.814 225.176 166.92C225.858 167.501 226.614 167.843 227.391 167.922C228.169 168 228.947 167.814 229.673 167.376C230.626 166.78 231.474 165.755 232.455 165.225C232.88 165.045 233.292 164.798 233.684 164.488C233.965 164.199 234.206 163.827 234.393 163.393C234.58 162.959 234.71 162.473 234.775 161.961C234.899 160.938 234.923 159.893 234.846 158.859C234.728 154.856 234.174 150.913 233.208 147.195C233.152 146.955 233.056 146.742 232.931 146.576C232.788 146.441 232.623 146.372 232.455 146.377C231.235 146.178 229.235 145.213 228.058 145.913C227.646 146.262 227.291 146.751 227.019 147.342C226.8 147.718 225.424 149.405 225.424 149.899Z" fill="#A1616A"/>
<path d="M225.038 148.234C225.038 146.436 223.609 142.096 225.881 141.809C225.881 139.886 224.123 138.692 224.452 136.651C224.557 135.973 224.928 135.42 224.971 134.728C225.114 132.761 222.818 131.692 223.199 129.806C223.342 129.069 223.847 128.642 223.956 127.912C224.214 126.21 222.246 125.451 222.208 123.705C222.208 123.116 222.422 122.563 222.403 121.973C222.403 121.237 221.989 120.677 221.76 120.036C221.165 118.393 221.455 115.85 220.369 115.003C221.088 115.099 221.322 113.448 221.027 112.439C220.731 111.43 220.126 110.553 220.121 109.433C220.157 109.027 220.157 108.615 220.121 108.21C219.921 107.134 218.783 107.045 218.592 105.999C218.568 105.598 218.56 105.194 218.568 104.791C218.492 103.958 217.94 103.428 217.42 103.192C216.881 103.05 216.362 102.763 215.886 102.345C215.553 101.954 215.167 101.306 214.81 101.608C214.676 101.733 214.61 101.969 214.51 102.146C214.081 102.919 213.262 102.58 212.723 102.013C211.132 100.34 210.341 97.3415 210.003 94.4164C209.665 91.4912 209.674 88.4702 209.25 85.5745C209.121 84.672 208.949 83.7855 208.736 82.9219C208.555 82.1851 207.974 81.0283 207.936 80.2841C207.85 78.5894 210.117 79.7462 210.98 79.9157C211.817 80.0422 212.645 80.2888 213.452 80.6525C214.314 81.1562 215.158 81.7293 215.982 82.3693C219.421 84.7198 223.575 85.0071 226.338 88.9565C227.248 90.2533 228.015 91.9554 229.197 92.5448C229.738 92.7055 230.273 92.9196 230.797 93.1859C232.107 94.1364 232.312 96.8258 233.027 98.771C233.251 99.2847 233.447 99.8269 233.613 100.392C233.75 101.058 233.815 101.756 233.803 102.455L233.903 107.561C234.065 116.116 234.227 124.692 233.636 133.195C233.446 136.003 233.16 138.891 233.698 141.588C233.841 142.325 234.041 143.017 234.175 143.761C234.293 144.634 234.353 145.523 234.356 146.414L234.432 149.722C234.458 149.979 234.421 150.243 234.327 150.459C234.247 150.559 234.154 150.63 234.055 150.667C233.955 150.704 233.851 150.706 233.751 150.673C230.773 150.26 227.763 147.666 224.952 149.236" fill="#464353"/>
<path d="M360.911 402.437C380.37 402.437 396.144 398.911 396.144 394.561C396.144 390.211 380.37 386.684 360.911 386.684C341.452 386.684 325.678 390.211 325.678 394.561C325.678 398.911 341.452 402.437 360.911 402.437Z" fill="#504F60"/>
<path d="M391.223 394.944C390.604 390.84 390.218 387.237 390.218 387.237C390.218 387.237 390.361 382.772 389.065 379.419V378.299V370.047C389.434 368.548 389.885 367.101 390.413 365.722C391.366 363.128 390.413 353.623 390.413 353.623C390.413 353.623 386.855 340.22 387.717 331.717C388.579 323.214 380.409 293.962 380.409 293.962C380.46 291.141 380.717 288.338 381.176 285.607C381.263 285.033 381.299 284.442 381.281 283.853C381.281 283.78 381.281 283.713 381.281 283.64C381.281 283.566 381.281 283.684 381.281 283.706C381.157 278.099 378.289 267.592 378.289 267.592L378.675 247.565C378.675 247.565 380.505 235.776 377.522 219.897C376.479 214.364 375.812 209.935 375.388 206.516C375.341 206.133 375.293 205.78 375.255 205.404C381.395 203.93 386.088 202.751 386.088 202.751C386.088 202.751 382.524 179.696 380.119 175.658C377.713 171.621 375.788 158.94 375.788 158.94C375.788 158.94 374.536 142.663 376.56 137.904C378.585 133.144 378.871 124.936 378.871 124.936C378.871 124.936 383.487 119.778 384.068 117.442C384.649 115.106 385.607 109.949 385.607 107.215C385.607 104.481 385.03 102.057 385.221 100.584C385.411 99.1099 383.873 93.6648 384.644 91.0712C384.844 90.2745 384.947 89.4278 384.949 88.5734C384.951 88.5489 384.951 88.5242 384.949 88.4997C384.949 88.4997 384.949 88.4997 384.949 88.4997C384.956 86.23 384.821 83.9647 384.544 81.7357C383.209 79.9917 381.651 78.7036 379.971 77.9558L379.871 77.3368L379.609 75.7158C379.463 75.5663 379.312 75.4286 379.156 75.3032V74.7137L379.114 72.3706L379.838 67.1097C381.267 57.9584 373.364 56.5953 373.364 56.5953C372.884 55.1916 372.087 54.1106 371.125 53.5596C369.538 52.6975 370.863 67.3234 371.601 68.296C372.158 69.0328 373.883 73.5864 374.717 75.8411L374.85 76.2095C374.719 76.3909 374.598 76.588 374.488 76.799L374.788 79.9747L374.836 80.4609C374.312 81.467 373.887 82.5866 373.573 83.784C373.573 83.784 375.002 86.2303 374.731 88.9418C374.459 91.6533 375.174 95.0942 375.207 95.2784C375.121 95.1237 374.107 93.429 373.092 93.8416C372.077 94.2543 369.243 95.5732 369.243 95.5732C369.243 95.5732 367.128 96.1479 367.337 96.87C367.547 97.5921 365.908 100.76 365.908 100.76L360.22 92.4196C360.163 92.1691 360.101 91.9185 360.054 91.6827C359.821 90.4802 359.662 89.2468 359.577 87.9986C360.197 87.7708 360.805 87.4728 361.397 87.1071C361.995 86.7897 362.534 86.2538 362.969 85.545C363.545 84.4914 363.655 83.0619 363.888 81.7504C364.336 79.1862 365.318 76.9095 365.999 74.4706C367.152 70.3494 367.524 65.8056 367.071 61.3699C366.983 60.0029 366.684 58.6887 366.199 57.5384C365.27 55.5637 363.584 54.7606 362.359 53.1838C361.135 51.607 360.344 49.1976 358.915 48.0261C357.624 46.9577 356.057 47.0829 354.599 47.4513C351.752 48.1775 349.017 49.7166 346.534 51.9901C345.705 52.727 344.79 53.6333 343.838 53.3606C343.018 53.1322 342.408 52.1228 341.894 51.1502C341.9 51.1099 341.908 51.0705 341.918 51.0323C341.895 50.9964 341.874 50.9569 341.856 50.9144C341.253 52.9837 340.951 55.2321 340.97 57.5016C340.97 57.8553 340.97 58.2384 340.998 58.5552V58.9236C340.998 59.0268 340.998 59.13 340.998 59.2257C340.998 59.3828 340.984 59.5391 340.955 59.6899C340.835 60.1407 340.653 60.5455 340.422 60.8762C340.247 61.1834 340.088 61.5111 339.946 61.8562C339.946 61.7383 339.993 61.6204 340.022 61.4952C339.658 62.3156 339.453 63.2791 339.431 64.273C339.404 64.9965 339.558 65.7083 339.86 66.2624C340.145 66.6908 340.456 67.0757 340.789 67.4118C340.675 68.3845 340.618 69.3708 340.617 70.3591C340.628 73.2891 341.127 76.1652 342.067 78.7093C343.007 81.2535 344.355 83.3795 345.981 84.8819C346.048 85.125 346.11 85.3755 346.172 85.6187C346.901 88.566 347.448 92.029 347.206 95.1974C347.206 95.4258 347.163 95.6616 347.139 95.89C347.115 96.1184 346.996 96.1331 346.934 96.2584C346.934 96.2584 337.535 96.4058 335.325 93.3111C333.114 90.2165 329.741 100.878 329.741 100.878C329.741 100.878 326.373 101.888 325.697 100.878C325.021 99.8688 321.081 100.738 321.081 100.738C319.467 98.5181 317.366 97.3324 315.207 97.4226C313.899 95.8848 312.455 94.6442 310.92 93.7385V93.7385L310.815 93.6795C310.137 93.2975 309.413 93.1565 308.695 93.2669C308.695 93.2669 304.074 87.3723 302.726 84.1893C301.378 81.0062 294.961 69.2539 294.932 69.2023V68.635L294.861 66.9255C294.67 66.9718 294.477 66.9964 294.284 66.9992C294.251 66.8297 294.203 66.6308 294.156 66.4024C293.786 64.735 293.33 63.1162 292.793 61.5615C292.793 61.5615 292.793 59.4026 293.198 58.8573C293.603 58.3121 293.032 50.3912 293.032 50.3912C293.032 50.3912 288.868 35.338 285.138 46.5745C285.138 46.5745 278.087 53.8469 284.004 62.3204C284.004 62.3204 286.386 64.0888 286.7 65.4887C286.92 66.395 287.72 68.9371 288.258 70.6465L288.501 71.3833L288.434 71.4717L288.52 72.8864L288.558 73.4317C287.444 74.4116 286.686 75.3842 286.872 76.1137C287.2 77.362 287.426 78.669 287.544 80.0041C287.544 80.0041 295.728 95.8605 296.785 102.632C296.785 102.632 318.732 122.806 325.949 124.243L324.673 134.301C324.487 137.03 324.391 139.772 324.387 142.516C324.482 144.675 323.52 154.475 323.52 154.475C323.52 154.475 322.267 168.887 321.209 170.906C320.152 172.925 320.342 181.568 320.342 181.568C320.093 185.705 319.615 189.802 318.913 193.814C317.856 199.288 318.623 206.067 318.623 206.067C318.623 206.067 314.969 219.035 323.725 210.245C323.725 210.245 328.012 209.832 332.976 209.567C332.976 209.817 332.976 210.075 332.976 210.304C332.976 211.291 332.976 212.359 332.943 213.479C332.876 220.907 332.847 231.163 333.067 238.885C333.452 252.575 336.149 279.668 336.149 279.668V293.307C335.975 294.586 335.888 295.89 335.891 297.197C335.835 301.996 336.661 306.721 338.273 310.821L338.95 319.899C338.95 319.899 340.531 325.882 340.56 329.477C340.554 329.767 340.532 330.056 340.493 330.339C340.432 330.797 340.406 331.265 340.417 331.732C340.327 335.858 341.932 345.732 341.932 345.732C341.932 345.732 342.027 355.671 342.99 356.253C343.814 356.747 341.889 361.978 341.317 363.482C341.302 363.39 341.291 363.296 341.284 363.202L341.165 363.496C340.966 364.301 340.865 365.155 340.865 366.016C340.811 366.695 340.882 367.384 341.071 368.002C341.26 368.62 341.559 369.143 341.932 369.509C343.761 371.24 344.743 372.677 343.19 373.252C342.618 373.389 342.052 373.574 341.494 373.804C341.494 373.694 341.437 373.576 341.413 373.473C341.194 373.605 341.011 373.851 340.895 374.168C340.78 374.484 340.739 374.853 340.779 375.212C340.794 376.381 340.988 377.527 341.346 378.557C342.885 383.892 343.952 385.925 343.952 385.925L344.69 385.8C344.581 386.236 344.437 386.65 344.262 387.03C343.98 387.648 343.608 388.154 343.175 388.504C342.772 388.877 342.322 389.116 341.856 389.204C341.334 389.23 340.822 389.426 340.352 389.779C339.883 390.132 339.467 390.634 339.131 391.252C338.178 393.176 337.568 395.791 339.464 398.09L346.348 401.774C346.348 401.774 358.191 404.154 357.562 400.043C356.933 395.931 356.552 392.336 356.552 392.336C356.603 389.825 356.277 387.331 355.599 385.048C355.475 384.676 355.335 384.316 355.18 383.973L355.599 383.906C355.599 383.906 356.466 374.821 357.619 373.097C357.886 372.699 357.948 372.36 357.886 372.154C358.005 371.66 357.7 371.373 357.314 371.204L357.229 371.565C356.851 371.437 356.467 371.371 356.081 371.366C356.081 371.366 355.695 366.613 356.948 364.882C357.049 364.684 357.122 364.457 357.164 364.213C357.206 363.97 357.215 363.716 357.19 363.467C357.2 362.815 357.155 362.163 357.057 361.529C357.045 361.57 357.03 361.609 357.014 361.647C356.385 357.329 354.251 350.469 354.251 350.469C354.251 350.469 354.156 346.152 354.928 344.42C355.699 342.688 354.828 320.93 354.828 320.93C354.828 320.93 355.118 310.416 354.251 305.516C353.384 300.616 355.309 294.847 355.309 294.847C355.309 294.847 355.309 294.736 355.309 294.537V294.464L355.199 292.806C355.197 292.84 355.197 292.875 355.199 292.909C355.004 290.124 354.637 285.076 354.366 282.748C353.98 279.432 354.466 263.591 354.466 263.591L356.195 256.812L359.277 268.491L362.55 284.052C362.55 284.052 364.169 287.338 364.208 290.684C364.208 290.846 364.208 291.008 364.208 291.17C364.181 291.515 364.168 291.862 364.169 292.209C364.111 294.175 364.46 296.118 365.165 297.757C365.165 297.757 366.032 305.125 367.38 306.975C368.728 308.824 368.728 312.449 368.728 312.449C368.728 312.449 370.362 323.119 371.11 324.975C371.758 326.552 371.792 330.87 371.787 332.218C371.787 332.461 371.787 332.601 371.787 332.601C371.787 332.601 372.015 336.418 372.006 339.616C372.006 340.014 372.006 340.397 372.006 340.758C372.008 340.731 372.008 340.704 372.006 340.677C372.005 341.551 371.938 342.421 371.806 343.271L371.777 343.418C371.777 343.234 371.777 343.057 371.811 342.88C371.476 345.052 371.316 347.279 371.334 349.511C371.291 353.343 371.668 357.882 373.168 360.564C375.769 365.176 377.403 364.602 377.403 364.602C377.403 364.602 376.155 370.364 374.612 371.52C374.553 371.563 374.499 371.617 374.45 371.682C374.45 371.565 374.421 371.454 374.412 371.344C374.24 371.631 374.108 371.971 374.026 372.341C373.944 372.712 373.913 373.105 373.935 373.495C373.826 376.03 374.859 380.126 375.841 382.035C376.205 382.587 376.652 382.992 377.141 383.214C377.064 383.298 376.983 383.375 376.898 383.442C376.727 383.588 376.55 383.718 376.37 383.833C376.119 383.997 375.854 384.104 375.584 384.149C375.061 384.171 374.548 384.365 374.078 384.718C373.608 385.071 373.192 385.576 372.859 386.198C371.906 388.114 371.296 390.729 373.192 393.028L380.076 396.712C380.076 396.712 391.842 399.048 391.223 394.944Z" fill="url(#paint0_linear)"/>
<path d="M346.01 401.752L339.34 398.068C337.502 395.769 338.088 393.153 339.017 391.23C339.336 390.617 339.737 390.117 340.193 389.763C340.648 389.41 341.147 389.212 341.656 389.182C342.107 389.093 342.541 388.854 342.928 388.482C343.35 388.127 343.713 387.622 343.985 387.008C344.472 385.814 344.734 384.434 344.743 383.022C344.743 383.022 352.06 379.706 354.061 383.022C354.418 383.622 354.716 384.3 354.947 385.034C355.611 387.323 355.937 389.812 355.9 392.321C355.9 392.321 356.271 395.917 356.876 400.028C357.481 404.139 346.01 401.752 346.01 401.752Z" fill="#2D293D"/>
<path d="M378.613 396.668L371.944 392.984C370.105 390.685 370.691 388.069 371.62 386.154C371.937 385.538 372.337 385.036 372.792 384.682C373.247 384.329 373.746 384.132 374.255 384.105C374.518 384.063 374.775 383.956 375.017 383.788C375.193 383.673 375.365 383.543 375.531 383.398C377.394 381.814 377.346 377.923 377.346 377.923C377.346 377.923 384.659 374.608 386.664 377.923C386.933 378.372 387.167 378.867 387.364 379.397C388.617 382.75 388.479 387.222 388.479 387.222C388.479 387.222 388.851 390.825 389.432 394.929C390.013 399.033 378.613 396.668 378.613 396.668Z" fill="#2D293D"/>
<path opacity="0.1" d="M354.065 383.015C354.423 383.615 354.721 384.293 354.952 385.026L343.995 386.994C344.481 385.799 344.744 384.419 344.752 383.007C344.752 383.007 352.065 379.699 354.065 383.015Z" fill="black"/>
<path opacity="0.1" d="M387.374 379.412V382.587C385.669 386.927 377.422 385.977 375.026 383.803C375.202 383.688 375.374 383.558 375.541 383.413C377.403 381.828 377.356 377.938 377.356 377.938C377.356 377.938 384.668 374.622 386.674 377.938C386.942 378.387 387.177 378.881 387.374 379.412V379.412Z" fill="black"/>
<path d="M388.675 365.722C388.165 367.105 387.73 368.552 387.374 370.047V381.431C385.507 386.183 375.822 384.599 374.512 382.005C373.202 379.412 371.834 372.662 373.306 371.491C374.778 370.319 376.008 364.572 376.008 364.572C376.008 364.572 374.421 365.147 371.906 360.534C369.391 355.922 370.139 345.695 370.605 343.249C371.072 340.802 370.605 332.587 370.605 332.587C370.605 332.587 370.701 326.817 369.958 324.946C369.214 323.074 367.628 312.42 367.628 312.42C367.628 312.42 367.628 308.817 366.323 306.945C365.017 305.074 364.179 297.72 364.179 297.72C363.416 295.883 363.088 293.693 363.25 291.524C363.526 287.921 361.664 284.03 361.664 284.03L358.496 268.461L355.514 256.79L353.837 263.561C353.837 263.561 353.36 279.41 353.746 282.719C354.132 286.027 354.699 294.825 354.699 294.825C354.699 294.825 352.836 300.587 353.675 305.486C354.513 310.386 354.208 320.915 354.208 320.915C354.208 320.915 355.047 342.666 354.299 344.398C353.551 346.129 353.646 350.455 353.646 350.455C353.646 350.455 357.457 363.128 356.257 364.859C355.056 366.591 355.418 371.344 355.418 371.344C355.418 371.344 358.024 371.344 356.909 373.075C355.795 374.807 354.952 383.884 354.952 383.884L343.685 385.925C343.685 385.925 342.656 383.914 341.165 378.557C339.674 373.2 341.441 373.805 342.942 373.222C344.443 372.64 343.495 371.211 341.722 369.479C339.95 367.748 340.979 363.857 340.979 363.857C340.979 363.857 343.68 356.799 342.747 356.224C341.813 355.649 341.722 345.702 341.722 345.702C341.722 345.702 339.86 333.913 340.327 330.715C340.793 327.517 338.836 319.913 338.836 319.913L338.183 310.836C336.19 305.685 335.462 299.595 336.134 293.682V279.683C336.134 279.683 333.524 252.597 333.152 238.907C332.914 230.139 332.981 218.173 333.057 210.709C333.105 206.524 333.152 203.746 333.152 203.746L373.397 197.262C373.397 197.262 373.359 200.136 374.126 206.509C374.54 209.928 375.183 214.356 376.193 219.89C379.08 235.739 377.313 247.55 377.313 247.55L376.936 267.584C376.936 267.584 380.476 280.98 379.733 285.592C379.284 288.331 379.031 291.138 378.98 293.962C378.98 293.962 386.898 323.214 386.059 331.717C385.221 340.22 388.665 353.623 388.665 353.623C388.665 353.623 389.608 363.128 388.675 365.722Z" fill="#464353"/>
<path opacity="0.05" d="M365.665 290.654L377.918 288.127C377.918 288.127 370.977 299.083 365.665 290.654Z" fill="black"/>
<path opacity="0.1" d="M376.146 269.611C376.146 269.611 376.565 276.316 373.911 278.836C373.911 278.836 378.661 277.686 376.146 269.611Z" fill="black"/>
<path opacity="0.1" d="M375.393 248.287C375.393 248.287 365.151 261.329 361.426 260.245C357.7 259.162 375.393 248.287 375.393 248.287Z" fill="black"/>
<path opacity="0.1" d="M350.478 296.77C350.478 296.77 342.699 299.503 342.466 304.337C342.232 309.17 350.478 296.77 350.478 296.77Z" fill="black"/>
<path opacity="0.05" d="M352.188 356.865C352.188 356.865 341.198 360.033 344.319 362.192C347.439 364.351 352.565 366.083 352.565 366.083C352.565 366.083 356.114 366.37 352.188 356.865Z" fill="black"/>
<g opacity="0.05">
<path opacity="0.05" d="M342.099 365.626C341.822 365.359 341.588 364.999 341.414 364.573C341.24 364.147 341.131 363.665 341.094 363.165L340.979 363.467C340.979 363.467 339.955 367.357 341.727 369.081C341.927 369.28 342.123 369.479 342.299 369.671C342.628 369.575 342.98 369.501 343.318 369.369C344.819 368.794 343.871 367.357 342.099 365.626Z" fill="black"/>
<path opacity="0.05" d="M356.257 364.469C356.562 364.042 356.552 362.936 356.366 361.522C355.89 362.634 355.752 364.373 355.742 365.692C355.858 365.234 356.033 364.818 356.257 364.469V364.469Z" fill="black"/>
<path opacity="0.05" d="M354.566 292.784C354.161 294.488 353.911 296.271 353.823 298.081C354.035 296.831 354.32 295.612 354.675 294.441L354.566 292.784Z" fill="black"/>
<path opacity="0.05" d="M379.738 285.224C379.811 284.706 379.844 284.177 379.838 283.647C379.7 284.723 379.604 285.717 379.533 286.594C379.595 286.145 379.661 285.717 379.738 285.224Z" fill="black"/>
<path opacity="0.05" d="M354.304 344.015C354.456 343.661 354.542 342.467 354.58 340.81C354.235 342.092 354.052 343.466 354.042 344.855C354.107 344.559 354.195 344.277 354.304 344.015V344.015Z" fill="black"/>
<path opacity="0.05" d="M356.59 371.189C356.013 374.079 355.584 377.036 355.309 380.031L344.042 382.042C344.042 382.042 343.013 380.031 341.522 374.674C341.402 374.26 341.296 373.837 341.203 373.407C340.527 373.886 340.25 374.969 341.146 378.13C342.637 383.464 343.671 385.498 343.671 385.498L354.937 383.479C354.937 383.479 355.776 374.401 356.89 372.67C357.462 371.837 357.11 371.402 356.59 371.189Z" fill="black"/>
<path opacity="0.05" d="M341.727 345.312C341.727 345.312 341.818 355.251 342.751 355.826C343.228 354.183 343.537 352.621 343.118 352.363C342.165 351.788 342.094 341.841 342.094 341.841C342.094 341.841 340.231 330.052 340.698 326.854C341.165 323.656 339.207 316.052 339.207 316.052L338.554 306.975C336.561 301.824 335.834 295.734 336.506 289.822V275.822C336.506 275.822 333.895 248.736 333.524 235.046C333.286 226.278 333.352 214.312 333.429 206.848C333.429 205.5 333.457 204.306 333.471 203.297L333.152 203.348C333.152 203.348 333.1 206.119 333.057 210.311C332.981 217.775 332.909 229.741 333.152 238.502C333.524 252.192 336.13 279.285 336.13 279.285V293.285C335.461 299.196 336.19 305.282 338.183 310.43L338.831 319.508C338.831 319.508 340.789 327.142 340.322 330.317C339.855 333.493 341.727 345.312 341.727 345.312Z" fill="black"/>
<path opacity="0.05" d="M374.893 378.159C373.978 376.11 373.367 373.772 373.106 371.314C371.958 372.92 373.278 379.154 374.536 381.63C375.836 384.223 385.526 385.807 387.398 381.047V378.306C384.859 382.16 376.122 380.613 374.893 378.159Z" fill="black"/>
<path opacity="0.05" d="M389.051 361.875C388.54 363.259 388.103 364.706 387.746 366.2V368.241C387.96 367.505 388.26 366.517 388.698 365.353C388.993 364.219 389.133 363.002 389.108 361.78C389.108 361.78 389.065 361.846 389.051 361.875Z" fill="black"/>
<path opacity="0.05" d="M375.464 364.152C375.819 363.042 376.126 361.898 376.384 360.726C376.384 360.726 374.798 361.301 372.282 356.688C370.453 353.336 370.348 346.999 370.61 342.858C370.134 345.312 369.395 355.539 371.911 360.151C373.554 363.165 374.798 363.961 375.464 364.152Z" fill="black"/>
<path opacity="0.05" d="M370.605 332.196C370.77 335.035 370.832 337.886 370.791 340.736C370.838 340.286 370.901 339.841 370.982 339.402C371.458 336.949 370.982 328.74 370.982 328.74C370.982 328.74 371.077 322.971 370.329 321.1C369.581 319.228 368.023 308.559 368.023 308.559C368.023 308.559 368.023 304.956 366.718 303.084C365.413 301.213 364.574 293.859 364.574 293.859C363.804 292.025 363.468 289.836 363.622 287.663C363.903 284.06 362.04 280.169 362.04 280.169L358.872 264.607L355.89 252.936L354.208 259.715C354.208 259.715 354.208 260.57 354.151 261.925L355.514 256.421L358.496 268.071L361.664 283.632C361.664 283.632 363.526 287.523 363.245 291.126C363.091 293.299 363.428 295.488 364.198 297.322C364.198 297.322 365.036 304.691 366.342 306.547C367.647 308.404 367.642 312.022 367.642 312.022C367.642 312.022 369.229 322.684 369.972 324.548C370.715 326.412 370.605 332.196 370.605 332.196Z" fill="black"/>
</g>
<path d="M378.428 67.0876L377.727 72.3485L377.77 74.6916L377.799 76.4158L373.911 77.0347L373.478 75.7895C372.673 73.5348 371.001 68.9518 370.462 68.2445C369.743 67.3161 368.462 52.6828 369.986 53.5522C370.925 54.1128 371.695 55.1918 372.149 56.5806C372.149 56.5806 379.804 57.9363 378.428 67.0876Z" fill="#FFCDD3"/>
<path opacity="0.1" d="M377.799 76.4158L373.911 77.0347L373.478 75.7895C374.001 74.8688 374.714 74.257 375.496 74.0582C376.277 73.8593 377.079 74.0858 377.765 74.699L377.799 76.4158Z" fill="black"/>
<path d="M378.78 79.2673L373.654 81.102L373.545 79.9231L373.254 76.7474C373.254 76.7474 375.283 72.5622 378.218 75.7011L378.475 77.3147L378.78 79.2673Z" fill="#6C63FF"/>
<path d="M295.747 67.6624L290.273 72.2012L289.797 70.6096C289.278 68.9223 288.501 66.3803 288.287 65.4519C287.963 64.0519 285.681 62.2836 285.681 62.2836C279.964 53.8175 286.777 46.5377 286.777 46.5377C290.388 35.3011 294.399 50.3544 294.399 50.3544C294.399 50.3544 294.961 58.29 294.565 58.8205C294.17 59.351 294.17 61.5246 294.17 61.5246C294.692 63.0819 295.133 64.7006 295.49 66.3656C295.656 67.1687 295.747 67.6624 295.747 67.6624Z" fill="#FFCDD3"/>
<path opacity="0.1" d="M295.747 67.6623L290.273 72.2012L289.797 70.6096C290.569 69.6076 293.308 66.1887 294.208 66.3287C294.638 66.4117 295.072 66.429 295.504 66.3803C295.656 67.1687 295.747 67.6623 295.747 67.6623Z" fill="black"/>
<path d="M296.304 70.2191L290.154 74.9053L290.03 72.8643L289.945 71.4496C289.945 71.4496 293.508 66.7266 294.561 66.9108C295.093 67.0301 295.634 67.0301 296.166 66.9108L296.238 68.6202L296.304 70.2191Z" fill="#6C63FF"/>
<path d="M363.522 102.035C363.522 102.035 336.711 106.714 341.722 104.194C345.209 102.433 346.596 99.0362 346.886 95.2048C347.125 92.0143 346.591 88.5734 345.891 85.6261C345.261 83.0114 344.463 80.5011 343.509 78.1326C343.509 78.1326 363.993 60.6994 359.901 76.5484C359.27 78.9457 358.878 81.4773 358.739 84.0566C358.616 86.6199 358.795 89.1965 359.268 91.6606C360.04 95.6591 361.513 99.2494 363.522 102.035V102.035Z" fill="#FFCDD3"/>
<path opacity="0.1" d="M359.887 76.5263C359.256 78.9236 358.864 81.4552 358.724 84.0345C356.795 86.5471 354.68 86.3776 351.96 86.3776C349.873 86.3776 347.558 87.1587 345.891 85.604C345.261 82.9893 344.463 80.479 343.509 78.1105C343.509 78.1105 363.988 60.6773 359.887 76.5263Z" fill="black"/>
<path d="M351.598 87.4829C357.72 87.4829 362.683 79.8064 362.683 70.337C362.683 60.8676 357.72 53.1912 351.598 53.1912C345.476 53.1912 340.512 60.8676 340.512 70.337C340.512 79.8064 345.476 87.4829 351.598 87.4829Z" fill="#FFCDD3"/>
<path opacity="0.1" d="M363.522 102.035C363.522 102.035 336.711 106.714 341.722 104.194C345.209 102.433 346.596 99.0362 346.886 95.2047C348.22 92.9943 350.902 91.3512 352.603 90.4964C354.175 89.6786 355.873 89.6349 357.462 90.3712C358.087 90.6624 358.682 91.0891 359.229 91.6385C360.01 95.6517 361.496 99.2507 363.522 102.035V102.035Z" fill="black"/>
<path opacity="0.1" d="M378.78 79.2673L373.654 81.102L373.545 79.9231C374.093 78.757 374.861 77.881 375.744 77.4143C376.626 76.9475 377.58 76.9128 378.475 77.3147L378.78 79.2673Z" fill="black"/>
<path opacity="0.1" d="M296.304 70.2191L290.154 74.9053L290.03 72.8643C292.022 71.2077 294.093 69.7865 296.223 68.6129L296.304 70.2191Z" fill="black"/>
<path opacity="0.1" d="M374.126 206.524C363.736 209.088 348.968 212.359 346.624 211.254C344.676 210.341 338.464 210.436 333.057 210.724C333.105 206.539 333.152 203.761 333.152 203.761L373.397 197.277C373.397 197.277 373.359 200.15 374.126 206.524Z" fill="black"/>
<path d="M384.482 202.751C384.482 202.751 350.293 211.829 346.624 210.12C342.956 208.41 324.115 210.26 324.115 210.26C315.636 219.05 319.175 206.082 319.175 206.082C319.175 206.082 318.432 199.31 319.456 193.836C320.144 189.816 320.614 185.715 320.862 181.575C320.862 181.575 320.676 172.925 321.7 170.906C322.724 168.887 323.939 154.482 323.939 154.482C323.939 154.482 324.868 144.682 324.778 142.523C324.687 140.365 325.054 134.308 325.054 134.308L326.269 124.221C319.28 122.784 298.038 102.61 298.038 102.61C297.014 95.8384 289.097 79.9894 289.097 79.9894C288.981 78.6566 288.762 77.3503 288.444 76.099C287.887 73.7927 296.271 69.1802 296.271 69.1802C296.271 69.1802 302.511 80.9694 303.817 84.1672C305.122 87.365 309.591 93.2448 309.591 93.2448C310.285 93.1344 310.986 93.2756 311.639 93.6574L311.748 93.709C313.246 94.6183 314.65 95.8593 315.917 97.3931C318.018 97.3161 320.056 98.505 321.6 100.709C321.6 100.709 325.411 99.8394 326.073 100.849C326.735 101.858 329.984 100.849 329.984 100.849C329.984 100.849 333.243 90.187 335.387 93.2817C337.53 96.3763 346.624 96.2289 346.624 96.2289C347.834 93.7385 350.783 91.9554 352.627 91.0712C354.199 90.2568 355.896 90.213 357.486 90.9459C358.172 91.2624 358.816 91.761 359.391 92.4196L364.922 100.775C364.922 100.775 366.504 97.5994 366.318 96.8847C366.132 96.17 368.181 95.5879 368.181 95.5879C368.181 95.5879 370.882 94.2911 371.906 93.8564C372.93 93.4217 373.869 95.1384 373.954 95.2932C373.921 95.109 373.221 91.6091 373.478 88.9565C373.735 86.304 372.358 83.7988 372.358 83.7988C375.617 71.4054 382.977 81.7799 382.977 81.7799C382.977 81.7799 383.815 88.5513 383.072 91.1449C382.329 93.7385 383.815 99.2131 383.63 100.657C383.444 102.101 384.006 104.548 384.006 107.289C384.006 110.03 383.053 115.209 382.515 117.516C381.977 119.822 377.484 125.009 377.484 125.009C377.484 125.009 377.203 133.225 375.245 137.977C373.287 142.73 374.516 158.984 374.516 158.984C374.516 158.984 376.379 171.665 378.709 175.703C381.038 179.74 384.482 202.751 384.482 202.751Z" fill="#3F3D56"/>
<path opacity="0.1" d="M334.643 107.937C334.643 107.937 333.619 103.185 332.685 102.779C331.758 102.252 330.856 101.627 329.984 100.908L330.585 99.132C330.585 99.132 334.081 100.606 334.643 102.205C335.205 103.803 334.643 107.937 334.643 107.937Z" fill="black"/>
<path opacity="0.1" d="M315.917 97.4226C315.731 98.8962 307.437 100.156 307.437 100.156L311.629 93.6574L311.734 93.7164C313.238 94.6306 314.647 95.8791 315.917 97.4226V97.4226Z" fill="black"/>
<path d="M291.926 78.7957C292.337 78.7957 292.669 78.2811 292.669 77.6463C292.669 77.0115 292.337 76.4969 291.926 76.4969C291.516 76.4969 291.183 77.0115 291.183 77.6463C291.183 78.2811 291.516 78.7957 291.926 78.7957Z" fill="#575988"/>
<path d="M292.879 81.102C293.289 81.102 293.622 80.5874 293.622 79.9525C293.622 79.3177 293.289 78.8031 292.879 78.8031C292.469 78.8031 292.136 79.3177 292.136 79.9525C292.136 80.5874 292.469 81.102 292.879 81.102Z" fill="#575988"/>
<path d="M293.813 83.2314C294.223 83.2314 294.556 82.7168 294.556 82.082C294.556 81.4472 294.223 80.9325 293.813 80.9325C293.402 80.9325 293.07 81.4472 293.07 82.082C293.07 82.7168 293.402 83.2314 293.813 83.2314Z" fill="#575988"/>
<path d="M294.789 85.5303C295.2 85.5303 295.533 85.0157 295.533 84.3809C295.533 83.746 295.2 83.2314 294.789 83.2314C294.379 83.2314 294.046 83.746 294.046 84.3809C294.046 85.0157 294.379 85.5303 294.789 85.5303Z" fill="#575988"/>
<path d="M382.605 85.1913C382.94 85.1913 383.21 84.7724 383.21 84.2556C383.21 83.7388 382.94 83.3198 382.605 83.3198C382.271 83.3198 382 83.7388 382 84.2556C382 84.7724 382.271 85.1913 382.605 85.1913Z" fill="#575988"/>
<path d="M382.701 87.3208C383.035 87.3208 383.306 86.9018 383.306 86.385C383.306 85.8682 383.035 85.4492 382.701 85.4492C382.367 85.4492 382.096 85.8682 382.096 86.385C382.096 86.9018 382.367 87.3208 382.701 87.3208Z" fill="#575988"/>
<path d="M382.782 89.4428C383.116 89.4428 383.387 89.0239 383.387 88.5071C383.387 87.9902 383.116 87.5713 382.782 87.5713C382.448 87.5713 382.177 87.9902 382.177 88.5071C382.177 89.0239 382.448 89.4428 382.782 89.4428Z" fill="#575988"/>
<path opacity="0.1" d="M334.677 146.989C334.586 146.819 355.59 187.838 371.892 164.134C371.906 164.142 346.148 169.543 334.677 146.989Z" fill="black"/>
<path opacity="0.1" d="M322.624 168.312C322.624 168.312 335.191 168.843 336.506 174.435V180.256C336.148 180.563 335.746 180.724 335.337 180.724C334.927 180.724 334.525 180.563 334.167 180.256C332.9 179.195 325.302 173.227 322.624 176.1V168.312Z" fill="black"/>
<path d="M322.858 168.312C322.858 168.312 334.877 168.821 336.134 174.155V179.696C335.792 179.99 335.407 180.145 335.015 180.145C334.623 180.145 334.238 179.99 333.895 179.696C332.685 178.694 325.421 172.998 322.858 175.739V168.312Z" fill="#3F3D56"/>
<path opacity="0.1" d="M329.484 126.107C330.768 130.704 332.404 135.045 334.358 139.038C336.482 143.452 339.056 147.302 341.98 150.437C341.98 150.437 329.694 128.774 329.484 126.107Z" fill="black"/>
<path opacity="0.1" d="M325.373 103.523C325.373 103.523 327.469 117.523 332.871 122.276L325.373 103.523Z" fill="black"/>
<path opacity="0.1" d="M322.157 104.938C322.105 104.68 320.295 115.99 329.122 122.276C329.122 122.276 325.373 120.308 322.157 104.938Z" fill="black"/>
<path opacity="0.1" d="M377.032 95.5511C376.894 95.5511 381.386 99.972 382.61 102.035C382.61 102.035 379.685 95.2563 377.032 95.5511Z" fill="black"/>
<path d="M348.601 85.8766C348.603 86.2506 348.655 86.6201 348.753 86.9616C348.852 87.3031 348.996 87.6092 349.175 87.8605C349.354 88.1119 349.565 88.3031 349.794 88.422C350.023 88.5409 350.266 88.5849 350.507 88.5512C353.884 88.8754 357.405 89.1039 360.511 87.0776C361.093 86.756 361.617 86.2198 362.035 85.5155C362.588 84.4619 362.697 83.0324 362.921 81.7209C363.36 79.1568 364.293 76.88 364.965 74.4411C366.101 70.3206 366.482 65.7956 366.065 61.3625C365.978 60.0036 365.687 58.6947 365.218 57.5384C364.322 55.5564 362.688 54.7532 361.502 53.1764C360.316 51.5996 359.553 49.1902 358.167 48.0187C356.919 46.9429 355.39 47.0755 353.984 47.4439C351.22 48.17 348.571 49.7082 346.181 51.9754C345.376 52.7122 344.495 53.6185 343.571 53.3459C342.761 53.1101 342.17 52.0564 341.665 51.0691C341.016 53.427 340.743 55.9923 340.87 58.5479C340.905 58.9229 340.897 59.3045 340.846 59.6752C340.729 60.1233 340.552 60.5278 340.327 60.8615C339.493 62.3351 338.974 64.7298 339.798 66.2476C340.155 66.9034 340.708 67.2644 341.055 67.935C341.68 69.136 341.47 70.8822 341.456 72.4148C341.421 72.95 341.509 73.4869 341.703 73.9327C341.884 74.1925 342.104 74.3759 342.344 74.465C342.583 74.5541 342.834 74.5458 343.071 74.4411C343.543 74.2212 344.038 74.1486 344.528 74.2274C345.045 74.4872 345.491 75.0057 345.795 75.7011C347.334 78.8031 347.944 82.1777 348.601 85.8766Z" fill="#2D293D"/>
<g opacity="0.1">
<path opacity="0.1" d="M362.431 84.2114C362.012 84.9157 361.489 85.4518 360.906 85.7734C357.781 87.785 354.266 87.5566 350.902 87.2471C350.541 87.2527 350.184 87.1291 349.859 86.886C349.345 86.4218 349.149 85.4492 348.992 84.5651C348.335 80.8809 347.73 77.4989 346.167 74.4264C345.866 73.7177 345.42 73.1858 344.9 72.9159C344.41 72.8444 343.915 72.9169 343.442 73.1296C343.206 73.2353 342.956 73.2447 342.716 73.1569C342.476 73.0691 342.256 72.8871 342.075 72.6285C341.88 72.1827 341.793 71.6458 341.827 71.1107C341.827 69.5634 342.051 67.8318 341.427 66.6308C341.079 65.9603 340.527 65.5993 340.169 64.9361C339.936 64.4472 339.793 63.8697 339.756 63.2651C339.718 62.6605 339.787 62.0514 339.955 61.5025C339.36 62.9762 339.107 64.8256 339.798 66.0929C340.155 66.7487 340.708 67.1097 341.056 67.7803C341.68 68.9886 341.47 70.7275 341.456 72.2601C341.419 72.7945 341.505 73.3317 341.699 73.778C341.879 74.0391 342.101 74.2232 342.341 74.3123C342.582 74.4014 342.833 74.3925 343.071 74.2864C343.543 74.0665 344.038 73.9939 344.528 74.0727C345.045 74.3325 345.491 74.851 345.795 75.5464C347.353 78.6189 347.963 81.9935 348.62 85.6924C348.697 86.6026 348.991 87.4355 349.445 88.0281C349.771 88.2715 350.13 88.3927 350.493 88.3818C353.87 88.706 357.391 88.9418 360.497 86.9081C361.08 86.5887 361.603 86.0522 362.021 85.3461C362.231 84.931 362.392 84.4622 362.497 83.9609C362.502 84.0566 362.469 84.1377 362.431 84.2114Z" fill="black"/>
<path opacity="0.1" d="M340.87 59.2258C341.019 58.9744 341.134 58.6786 341.208 58.3563C341.251 57.9835 341.251 57.6018 341.208 57.229C341.115 55.1282 341.292 53.0198 341.727 51.0249L341.665 50.9144C341.013 53.2688 340.741 55.8325 340.87 58.3858C340.884 58.6653 340.884 58.9462 340.87 59.2258V59.2258Z" fill="black"/>
</g>
<path opacity="0.1" d="M346.624 96.2658C346.624 96.2658 360.473 99.1099 361.716 95.89Z" fill="black"/>
<path opacity="0.1" d="M373.545 87.4018C373.545 87.4018 381.243 87.4018 382.934 91.8817Z" fill="black"/>
<path d="M416.614 485.396C414.331 488.554 411.364 490.268 408.301 490.2C407.52 490.2 406.439 490.429 406.434 491.637C406.453 491.992 406.532 492.332 406.663 492.624C407.629 495.117 409.156 496.971 410.95 497.834C412.617 498.615 414.399 498.482 416.138 498.342L421.211 497.937C422.164 497.856 423.117 497.782 424.07 497.598C425.022 497.414 426.061 497.112 427.057 496.861C429.503 496.323 431.977 496.146 434.445 496.331C435.103 496.368 435.874 496.331 436.265 495.594C436.656 494.857 436.456 493.45 436.308 492.344C436.003 490.068 436.308 487.68 436.027 485.396C435.55 481.388 433.307 478.315 430.849 476.864C428.562 475.523 424.513 473.983 422.35 476.223C420.068 478.573 418.672 482.501 416.614 485.396Z" fill="#3F3D56"/>
<path d="M421.654 351.103C422.102 354.397 424.165 356.917 424.222 360.276C424.274 362.973 423.031 365.235 422.136 367.542C421.292 369.93 420.579 372.425 420.006 374.998C418.32 381.699 416.227 388.138 413.756 394.229C412.565 397.177 411.231 400.323 411.503 403.749C411.692 405.351 412.058 406.891 412.584 408.302L416.157 419.281C416.94 421.473 417.552 423.8 417.981 426.215C418.291 428.3 418.32 430.459 418.501 432.581C419.063 439.315 421.107 446.094 419.897 452.622C419.792 453.182 419.42 453.86 419.13 453.47C420.311 456.881 421.259 460.315 421.168 464.183C421.121 466.209 420.721 468.324 421.202 470.21C421.407 470.999 421.764 471.735 421.759 472.583C421.759 473.143 421.592 473.666 421.554 474.211C421.454 475.766 422.378 477.063 423.336 477.556C424.294 478.05 425.337 478.013 426.304 478.463C428.162 479.325 429.491 481.8 431.068 483.517C432.685 485.241 434.592 486.201 436.556 486.28C436.836 486.327 437.118 486.239 437.365 486.03C437.505 485.84 437.618 485.607 437.695 485.345C437.772 485.084 437.813 484.8 437.813 484.512C437.899 483.136 437.766 481.748 437.423 480.471C437.081 479.194 436.541 478.066 435.851 477.188C435.548 476.895 435.297 476.49 435.122 476.009C435.033 475.584 435.01 475.132 435.055 474.69C435.343 468.651 435.272 462.584 434.845 456.564C434.653 454.657 434.591 452.723 434.66 450.795C434.76 449.189 435.074 447.597 434.96 445.998C434.845 444.399 434.317 442.94 434.007 441.401C433.454 438.66 433.607 435.712 433.531 432.846C433.435 427.865 432.697 422.973 431.963 418.11C431.673 416.201 431.353 414.204 430.482 412.79C429.739 411.589 428.538 410.439 428.819 408.84C428.975 408.251 429.207 407.717 429.5 407.271C429.845 406.601 430.098 405.83 430.244 405.004C430.39 404.178 430.425 403.315 430.348 402.467C430.662 402.591 430.993 402.542 431.286 402.33C431.579 402.117 431.815 401.754 431.954 401.303C437.756 397.066 442.434 388.593 444.521 379.198C444.644 378.5 444.833 377.835 445.083 377.223C445.621 376.059 446.555 375.558 447.384 374.917C449.985 372.891 451.781 369.096 453.429 365.383C454.382 363.231 455.335 361.006 455.763 358.471C455.989 356.832 456.096 355.159 456.082 353.483L456.23 344.825C456.262 344.255 456.227 343.681 456.125 343.131C455.984 342.617 455.778 342.151 455.52 341.76C453.936 339.169 451.855 337.433 449.585 336.809C448.06 336.389 446.502 336.47 444.959 336.271C441.967 335.888 439.014 334.451 436.022 334.797C431.32 335.335 427.133 340.375 424.918 346.815C424.141 349.084 423.322 351.059 421.654 351.103Z" fill="#464353"/>
<path d="M395.549 294.81C395.612 296.146 395.495 297.489 395.206 298.752C394.839 299.96 393.919 300.903 393.114 300.41C393.357 299.562 392.714 298.597 392.114 298.7C391.819 298.806 391.544 299.02 391.315 299.326C391.085 299.631 390.906 300.018 390.794 300.454C390.396 301.691 390.263 303.092 390.413 304.455C390.604 306.149 391.237 307.778 391.071 309.48C390.937 310.895 390.266 312.302 390.623 313.613C390.855 314.213 391.146 314.752 391.485 315.212C391.956 316.109 392.186 317.251 392.129 318.403C392.071 319.554 391.73 320.628 391.176 321.402L400.189 321.682C399.86 324.01 400.536 326.39 401.308 328.46C403.47 334.153 406.454 338.993 410.028 342.602C413.602 346.211 417.668 348.49 421.907 349.261C421.678 349.468 421.481 349.751 421.331 350.09C421.182 350.429 421.082 350.815 421.041 351.22C420.999 351.626 421.017 352.04 421.091 352.434C421.166 352.828 421.297 353.191 421.473 353.498C422.207 354.625 423.45 354.485 424.37 353.756C425.289 353.026 426.009 351.818 426.847 350.882C428.327 349.26 430.133 348.507 431.939 348.76C433.068 348.929 434.164 349.497 435.298 349.585C438.633 349.858 441.491 346.144 444.702 344.626C447.041 343.514 449.694 343.514 451.657 341.252C452.505 340.279 453.2 338.68 452.953 337.103C452.748 336.197 452.423 335.367 452 334.665C450.871 332.402 450.204 329.684 449.394 327.112C447.79 322.021 445.581 317.442 442.882 313.613C440.845 310.86 438.687 308.329 436.422 306.039C435.875 305.414 435.291 304.869 434.679 304.411C433.888 303.873 433.011 303.615 432.297 302.937C431.239 301.905 430.629 300.085 429.815 298.619C428.028 295.392 425.284 293.911 423.084 291.376C421.607 289.674 420.301 287.434 418.539 286.616C417.681 286.211 416.772 286.182 415.914 285.784C413.966 284.87 412.546 282.195 410.636 281.112C409.126 280.258 407.458 280.479 405.872 280.177C404.084 279.835 402.376 278.829 400.894 277.244C400.416 276.643 399.881 276.16 399.307 275.815C396.892 274.68 396.697 281.635 396.449 284.045C396.13 287.626 395.549 291.185 395.549 294.81Z" fill="#B370D0"/>
<path d="M397.902 318.138C398.307 324.931 394.991 331.511 395.958 338.164C396.163 339.579 396.559 340.928 396.702 342.364C397.106 346.306 395.582 350.042 394.129 353.343L381.648 381.674C381.147 382.917 380.548 384.061 379.866 385.078C377.484 388.357 373.902 388.025 370.767 388.998C368.565 389.698 366.486 391.12 364.67 393.168C364.588 393.266 364.534 393.409 364.52 393.568C364.506 393.726 364.532 393.887 364.593 394.015C365.111 395.105 365.797 395.978 366.588 396.553C367.379 397.128 368.251 397.388 369.124 397.309C369.453 397.972 369.124 398.96 368.671 399.439C368.004 400.175 367.08 400.345 366.947 402.106C366.902 402.718 366.982 403.336 367.175 403.874C367.68 405.061 368.462 405.901 369.357 406.217C373.678 408.266 378.347 404.67 381.581 399.785C384.816 394.9 387.136 388.732 390.309 383.766C392.066 381.011 394.062 378.66 395.873 375.993C399.484 370.666 402.294 364.204 405 357.727C405.815 355.774 406.639 353.77 406.977 351.508C407.315 349.246 407.158 346.955 407.544 344.766C408.049 341.9 409.407 339.609 410.536 337.207C412.751 332.491 414.232 326.722 413.937 320.908C413.642 315.095 411.317 309.362 407.773 307.387C406.673 306.712 405.463 306.598 404.319 307.063C402.866 307.756 401.794 309.613 400.803 311.396L398.421 315.625C397.841 316.562 397.386 317.666 397.083 318.874C396.929 319.483 396.892 320.148 396.977 320.788C397.061 321.429 397.263 322.018 397.559 322.485" fill="#FBBEBE"/>
<path d="M404.228 290.271C402.59 290.418 400.784 290.669 399.627 292.481C399.141 293.314 398.748 294.265 398.464 295.296C397.34 298.84 396.244 302.546 396.163 306.496C396.097 309.649 396.687 312.737 396.997 315.853C397.254 318.447 396.602 321.092 396.478 323.715C398.512 322.75 401.199 321.439 403.042 319.81C404.3 318.698 405.515 317.43 406.887 316.723C408.845 315.713 412.127 317.46 413.989 318.86C414.089 316.841 413.108 313.319 413.213 311.293C413.227 310.44 413.325 309.595 413.504 308.787C413.782 307.933 414.112 307.121 414.49 306.363C415.199 304.58 415.525 302.496 415.421 300.409C415.318 298.321 414.79 296.338 413.913 294.743C412.26 291.87 409.673 290.794 407.206 290.323C405.652 290.044 404.086 289.96 402.523 290.072" fill="#B370D0"/>
<defs>
<linearGradient id="paint0_linear" x1="336.43" y1="402.437" x2="336.43" y2="42.382" gradientUnits="userSpaceOnUse">
<stop stop-color="#808080" stop-opacity="0.25"/>
<stop offset="0.54" stop-color="#808080" stop-opacity="0.12"/>
<stop offset="1" stop-color="#808080" stop-opacity="0.1"/>
</linearGradient>
</defs>
</svg>
